#define archicon_width 48
#define archicon_height 48
static unsigned char archicon_bits[] = {
  0x00, 0x00, 0x00, 0x00, 0x00, 0x00, 0x00, 0x00, 0x00, 0x00, 0x00, 0x00,
  0xfc, 0xff, 0xff, 0xff, 0xff, 0x3f, 0x04, 0x00, 0x00, 0x00, 0x00, 0x20,
  0x04, 0x00, 0x00, 0x00, 0x00, 0x20, 0x04, 0x00, 0x20, 0x00, 0x30, 0x20,
  0x04, 0x00, 0x20, 0x00, 0x20, 0x20, 0x04, 0x00, 0x50, 0x00, 0x20, 0x20,
  0x04, 0x00, 0x50, 0x34, 0xe3, 0x20, 0x04, 0x00, 0x88, 0x98, 0x24, 0x21,
  0x04, 0x00, 0xf8, 0x88, 0x20, 0x21, 0x04, 0x00, 0x88, 0x88, 0x20, 0x21,
  0x04, 0x00, 0x04, 0x89, 0x24, 0x21, 0x04, 0x00, 0x8e, 0x1f, 0x73, 0x23,
  0x04, 0x3f, 0x00, 0x00, 0x00, 0x20, 0x04, 0x21, 0x00, 0x00, 0x20, 0x20,
  0x04, 0xa1, 0xff, 0x7f, 0x20, 0x24, 0x04, 0xb9, 0x00, 0x40, 0x10, 0x24,
  0x04, 0xa1, 0x00, 0x40, 0x10, 0x22, 0x04, 0xa1, 0x00, 0x40, 0x08, 0x22,
  0x04, 0xa1, 0x00, 0x40, 0x08, 0x21, 0x04, 0xb9, 0x00, 0x40, 0x08, 0x21,
  0x04, 0xa1, 0x00, 0x40, 0x04, 0x21, 0x04, 0xa1, 0xff, 0x7f, 0x84, 0x20,
  0x04, 0x21, 0x30, 0x00, 0x8e, 0x20, 0x04, 0x39, 0x30, 0x00, 0x7a, 0x20,
  0x04, 0x21, 0x30, 0xfc, 0xc3, 0x23, 0x04, 0x21, 0x30, 0x04, 0x22, 0x22,
  0x04, 0x21, 0x30, 0x04, 0x1f, 0x22, 0x04, 0x39, 0x30, 0x04, 0x0f, 0x22,
  0x04, 0x21, 0xf0, 0x07, 0x07, 0x22, 0x04, 0x21, 0xf0, 0x07, 0x03, 0x22,
  0x04, 0x21, 0x30, 0x04, 0x00, 0x22, 0x04, 0x39, 0x30, 0x04, 0x00, 0x22,
  0x04, 0x3f, 0x30, 0x04, 0x00, 0x22, 0x84, 0xea, 0xff, 0xff, 0xff, 0x2f,
  0x44, 0x55, 0x44, 0x44, 0x44, 0x2a, 0xc4, 0x6e, 0x44, 0x44, 0x44, 0x2a,
  0x44, 0x55, 0x00, 0x00, 0x00, 0x28, 0xc4, 0x6a, 0x00, 0x00, 0x00, 0x28,
  0x84, 0xf5, 0xff, 0xff, 0xff, 0x2f, 0x04, 0x1f, 0x00, 0x00, 0x00, 0x20,
  0x04, 0x00, 0x00, 0x00, 0x00, 0x20, 0x04, 0x00, 0x00, 0x00, 0x00, 0x20,
  0x04, 0x00, 0x00, 0x00, 0x00, 0x20, 0xfc, 0xff, 0xff, 0xff, 0xff, 0x3f,
  0x00, 0x00, 0x00, 0x00, 0x00, 0x00, 0x00, 0x00, 0x00, 0x00, 0x00, 0x00,
  };
