#define cdef_width 48
#define cdef_height 48
static unsigned char cdef_bits[] = {
   0x00, 0x00, 0x00, 0x00, 0x00, 0x00, 0x00, 0x00, 0x00, 0x00, 0x00, 0x00,
   0xfc, 0xff, 0xff, 0xff, 0xff, 0x3f, 0x04, 0x00, 0x00, 0x00, 0x00, 0x20,
   0x04, 0x00, 0x00, 0x00, 0x00, 0x20, 0x04, 0x00, 0x00, 0x00, 0x00, 0x20,
   0x04, 0x00, 0x00, 0x00, 0x00, 0x20, 0x04, 0x00, 0x00, 0x00, 0x00, 0x20,
   0x04, 0x00, 0x00, 0x00, 0x00, 0x20, 0x04, 0x00, 0x00, 0x00, 0x00, 0x20,
   0x04, 0x00, 0x00, 0x00, 0x00, 0x20, 0x04, 0x00, 0x00, 0x00, 0x00, 0x20,
   0x04, 0x00, 0x00, 0x00, 0x00, 0x20, 0x04, 0xfc, 0xff, 0xff, 0xff, 0x3f,
   0x04, 0x04, 0x00, 0x00, 0x00, 0x20, 0x04, 0x07, 0x00, 0x00, 0x00, 0x20,
   0x04, 0x05, 0x20, 0x00, 0x00, 0x20, 0x04, 0x05, 0x20, 0x00, 0x00, 0x20,
   0x04, 0x05, 0x20, 0x00, 0x00, 0x20, 0x04, 0x05, 0x20, 0x00, 0x00, 0x24,
   0x04, 0xc5, 0xa7, 0x07, 0x8f, 0x26, 0x04, 0x65, 0x64, 0xc8, 0x88, 0x21,
   0x04, 0x25, 0x20, 0x08, 0x88, 0x20, 0x04, 0x25, 0x20, 0x08, 0x8f, 0x20,
   0x04, 0x25, 0x20, 0xc8, 0x88, 0x20, 0x04, 0x25, 0x2c, 0x48, 0x88, 0x20,
   0x04, 0x65, 0x24, 0x48, 0x8c, 0x20, 0x04, 0xc5, 0x23, 0x88, 0xbb, 0x20,
   0x04, 0x05, 0x00, 0x00, 0x00, 0x20, 0x04, 0x05, 0x00, 0x00, 0x00, 0x20,
   0x04, 0x05, 0x00, 0x00, 0x00, 0x20, 0x04, 0x45, 0x00, 0x00, 0x00, 0x20,
   0x04, 0x05, 0x00, 0x10, 0x00, 0x20, 0x04, 0x05, 0x00, 0x10, 0x00, 0x20,
   0x04, 0x05, 0x00, 0x10, 0x00, 0x20, 0x04, 0x45, 0xf4, 0x3c, 0x00, 0x20,
   0x04, 0x45, 0x0c, 0x11, 0x00, 0x20, 0x04, 0x45, 0x04, 0x11, 0x00, 0x20,
   0x04, 0x45, 0x04, 0x11, 0x00, 0x20, 0x04, 0x45, 0x04, 0x11, 0x00, 0x20,
   0x04, 0x45, 0x04, 0x11, 0x00, 0x20, 0x04, 0x45, 0x04, 0x11, 0x00, 0x20,
   0x04, 0x45, 0x04, 0x31, 0x00, 0x20, 0x04, 0x05, 0x00, 0x00, 0x00, 0x20,
   0x04, 0x05, 0x00, 0x00, 0x00, 0x20, 0xfc, 0xff, 0xff, 0xff, 0xff, 0x3f,
   0x00, 0x00, 0x00, 0x00, 0x00, 0x00, 0x00, 0x00, 0x00, 0x00, 0x00, 0x00, 
   };
