#define entity_width 48
#define entity_height 48
static unsigned char entity_bits[] = {
  0x00, 0x00, 0x00, 0x00, 0x00, 0x00, 0x00, 0x00, 0x00, 0x00, 0x00, 0x00,
  0xfc, 0xff, 0xff, 0xff, 0xff, 0x3f, 0x04, 0x00, 0x00, 0x00, 0x00, 0x20,
  0x04, 0x00, 0x00, 0x00, 0x00, 0x20, 0x04, 0x00, 0x00, 0x00, 0x00, 0x20,
  0x04, 0x00, 0x00, 0x00, 0x00, 0x20, 0x04, 0x90, 0x24, 0x49, 0x12, 0x20,
  0x04, 0x90, 0x24, 0x49, 0x12, 0x20, 0x04, 0x90, 0x24, 0x49, 0x12, 0x20,
  0x04, 0x90, 0x24, 0x49, 0x12, 0x20, 0x04, 0xfe, 0xff, 0xff, 0xff, 0x20,
  0x04, 0xfe, 0xff, 0xff, 0xff, 0x20, 0x04, 0x06, 0x00, 0x00, 0xc0, 0x20,
  0xe4, 0x07, 0x00, 0x00, 0xc0, 0x2f, 0x04, 0x06, 0x00, 0x00, 0xc0, 0x20,
  0x04, 0x06, 0x00, 0x00, 0xc0, 0x20, 0xe4, 0xc7, 0x0f, 0x00, 0xc0, 0x2f,
  0x04, 0x86, 0x18, 0x00, 0xc0, 0x20, 0x04, 0x86, 0x10, 0x00, 0xc1, 0x20,
  0xe4, 0x87, 0x98, 0xe9, 0xc7, 0x2f, 0x04, 0x86, 0x4f, 0x32, 0xc1, 0x20,
  0x04, 0x86, 0x40, 0x12, 0xc1, 0x20, 0xe4, 0x87, 0x40, 0x12, 0xc1, 0x2f,
  0x04, 0x86, 0x40, 0x12, 0xc1, 0x20, 0x04, 0xc6, 0x81, 0x39, 0xc6, 0x20,
  0xe4, 0x07, 0x00, 0x00, 0xc0, 0x2f, 0x04, 0x06, 0x00, 0x00, 0xc0, 0x20,
  0x04, 0x06, 0x00, 0x00, 0xc0, 0x20, 0xe4, 0x07, 0x00, 0x00, 0xc0, 0x2f,
  0x04, 0x06, 0x00, 0x00, 0xc0, 0x20, 0x04, 0x06, 0x00, 0x00, 0xc0, 0x20,
  0xe4, 0x07, 0x00, 0x00, 0xc0, 0x2f, 0x04, 0x06, 0x00, 0x00, 0xc0, 0x20,
  0x04, 0xfe, 0xff, 0xff, 0xff, 0x20, 0x04, 0xfe, 0xff, 0xff, 0xff, 0x20,
  0x04, 0x90, 0x24, 0x49, 0x12, 0x20, 0x04, 0x90, 0x24, 0x49, 0x12, 0x20,
  0x04, 0x90, 0x24, 0x49, 0x12, 0x20, 0x04, 0x90, 0x24, 0x49, 0x12, 0x20,
  0x04, 0x00, 0x00, 0x00, 0x00, 0x20, 0x04, 0x00, 0x00, 0x00, 0x00, 0x20,
  0x04, 0x00, 0x00, 0x00, 0x00, 0x20, 0x04, 0x00, 0x00, 0x00, 0x00, 0x20,
  0x04, 0x00, 0x00, 0x00, 0x00, 0x20, 0xfc, 0xff, 0xff, 0xff, 0xff, 0x3f,
  0x00, 0x00, 0x00, 0x00, 0x00, 0x00, 0x00, 0x00, 0x00, 0x00, 0x00, 0x00,
  };
