#define moticon_width 48
#define moticon_height 48
static unsigned char moticon_bits[] = {
  0x00, 0x00, 0x00, 0x00, 0x00, 0x00, 0x00, 0x00, 0x00, 0x00, 0x00, 0x00,
  0xfc, 0xff, 0xff, 0xff, 0xff, 0x3f, 0x04, 0x00, 0x00, 0x00, 0x00, 0x24,
  0x04, 0x00, 0x00, 0x00, 0x00, 0x22, 0x04, 0x00, 0x00, 0x00, 0x00, 0x22,
  0x04, 0x00, 0x00, 0x00, 0x00, 0x21, 0x04, 0x00, 0x00, 0x00, 0x00, 0x21,
  0xf4, 0xff, 0xff, 0xff, 0xff, 0x21, 0x54, 0x55, 0x75, 0x55, 0xd5, 0x20,
  0xb4, 0xaa, 0xaa, 0xaa, 0x6a, 0x20, 0x54, 0x55, 0x75, 0x55, 0x75, 0x30,
  0xb4, 0xaa, 0xaa, 0xaa, 0x2a, 0x30, 0xf4, 0xff, 0xff, 0xff, 0x1f, 0x28,
  0x14, 0x00, 0x20, 0x00, 0x10, 0x28, 0x14, 0x00, 0x20, 0x00, 0x08, 0x28,
  0x54, 0x55, 0x25, 0x55, 0x05, 0x24, 0x14, 0x00, 0x20, 0x00, 0x04, 0x22,
  0x14, 0x00, 0x20, 0x00, 0x02, 0x22, 0x14, 0x00, 0x20, 0x00, 0x0e, 0x21,
  0x14, 0x00, 0x20, 0x00, 0x99, 0x21, 0x14, 0x00, 0x20, 0x00, 0xe1, 0x20,
  0x14, 0x00, 0x20, 0x00, 0xc1, 0x20, 0xf4, 0xff, 0xff, 0xff, 0xf3, 0x3f,
  0x14, 0x00, 0x20, 0x00, 0x9f, 0x20, 0x14, 0x00, 0x20, 0x00, 0x87, 0x20,
  0x54, 0x55, 0x25, 0x55, 0x97, 0x20, 0x14, 0x00, 0x20, 0x00, 0x81, 0x20,
  0x14, 0x00, 0x20, 0x00, 0x80, 0x20, 0x14, 0x00, 0x20, 0x00, 0x80, 0x20,
  0x14, 0x00, 0x20, 0x00, 0x80, 0x20, 0x14, 0x00, 0x20, 0x00, 0x80, 0x20,
  0x14, 0x00, 0x20, 0x00, 0x80, 0x20, 0x14, 0x00, 0x20, 0x00, 0x80, 0x20,
  0xf4, 0xff, 0xff, 0xff, 0xff, 0x3f, 0x14, 0x00, 0x20, 0x00, 0x80, 0x20,
  0x14, 0x00, 0x20, 0x00, 0x80, 0x20, 0xf4, 0xff, 0xff, 0xff, 0xff, 0x3f,
  0x04, 0x00, 0x00, 0x00, 0x00, 0x20, 0x04, 0x00, 0x00, 0x00, 0x00, 0x20,
  0x04, 0x00, 0x00, 0x00, 0x00, 0x20, 0x04, 0x00, 0x00, 0x00, 0x00, 0x20,
  0x04, 0x00, 0x00, 0x00, 0x00, 0x20, 0x04, 0x00, 0x00, 0x00, 0x00, 0x20,
  0x04, 0x00, 0x00, 0x00, 0x00, 0x20, 0xfc, 0xff, 0xff, 0xff, 0xff, 0x3f,
  0x00, 0x00, 0x00, 0x00, 0x00, 0x00, 0x00, 0x00, 0x00, 0x00, 0x00, 0x00,
  };
