#define resicon_width 48
#define resicon_height 48
static unsigned char resicon_bits[] = {
  0x00, 0x00, 0x00, 0x00, 0x00, 0x00, 0x00, 0x00, 0x00, 0x00, 0x00, 0x00,
  0xfc, 0xff, 0xff, 0xff, 0xff, 0x3f, 0x04, 0x00, 0x00, 0x00, 0x00, 0x20,
  0x04, 0x00, 0x00, 0x00, 0x00, 0x20, 0x84, 0x03, 0x38, 0x00, 0x00, 0x20,
  0x84, 0x03, 0x38, 0x00, 0x06, 0x20, 0xf4, 0x1f, 0xff, 0x01, 0x06, 0x20,
  0x14, 0xa0, 0x00, 0x01, 0x06, 0x20, 0x24, 0xa0, 0x80, 0xf0, 0xff, 0x20,
  0x24, 0x40, 0x80, 0x08, 0x80, 0x20, 0x44, 0x40, 0x40, 0x08, 0x40, 0x20,
  0x44, 0x00, 0x40, 0x04, 0x40, 0x24, 0x84, 0x00, 0x20, 0x04, 0x40, 0x22,
  0x84, 0x00, 0x20, 0x02, 0x20, 0x22, 0x04, 0x01, 0x10, 0x02, 0x20, 0x21,
  0x04, 0x01, 0x10, 0x01, 0x10, 0x21, 0x04, 0x02, 0x08, 0xff, 0x9f, 0x20,
  0x04, 0x02, 0x08, 0x60, 0x80, 0x20, 0x04, 0xfc, 0x07, 0x60, 0x40, 0x20,
  0x04, 0x00, 0x00, 0x60, 0x40, 0x20, 0x04, 0x00, 0x00, 0x00, 0x20, 0x28,
  0x04, 0x03, 0x0c, 0x00, 0x20, 0x28, 0x04, 0x03, 0x0c, 0x00, 0x10, 0x24,
  0xe4, 0xff, 0x7f, 0x00, 0x10, 0x24, 0x24, 0x00, 0x40, 0x00, 0x08, 0x22,
  0x24, 0x00, 0x40, 0x00, 0x3c, 0x22, 0x24, 0x00, 0x40, 0x00, 0xe4, 0x21,
  0x24, 0x00, 0x40, 0x00, 0x84, 0x21, 0xe4, 0xff, 0x7f, 0x00, 0x8c, 0x20,
  0x24, 0x00, 0x40, 0x80, 0x7d, 0x20, 0x24, 0x00, 0x40, 0x80, 0x1d, 0x20,
  0x24, 0x00, 0x40, 0xfe, 0xff, 0x20, 0x24, 0x00, 0x40, 0x02, 0x80, 0x20,
  0xe4, 0xff, 0x7f, 0x02, 0x80, 0x20, 0x24, 0x00, 0x40, 0x02, 0x80, 0x20,
  0x24, 0x00, 0x40, 0x02, 0x80, 0x20, 0x24, 0x00, 0x40, 0x02, 0x80, 0x20,
  0x24, 0x00, 0x40, 0x02, 0x80, 0x20, 0xe4, 0xff, 0x7f, 0xfe, 0xff, 0x20,
  0x04, 0x60, 0x00, 0x80, 0x01, 0x20, 0x04, 0x60, 0x00, 0x80, 0x01, 0x20,
  0x04, 0x60, 0x00, 0x00, 0x00, 0x20, 0x04, 0x00, 0x00, 0x00, 0x00, 0x20,
  0x04, 0x00, 0x00, 0x00, 0x00, 0x20, 0xfc, 0xff, 0xff, 0xff, 0xff, 0x3f,
  0x00, 0x00, 0x00, 0x00, 0x00, 0x00, 0x00, 0x00, 0x00, 0x00, 0x00, 0x00,
  };
