#define rtgen_width 48
#define rtgen_height 48
static unsigned char rtgen_bits[] = {
  0x00, 0x00, 0x00, 0x00, 0x00, 0x00, 0x00, 0x00, 0x00, 0x00, 0x00, 0x00,
  0xfc, 0xff, 0xff, 0xff, 0xff, 0x3f, 0x04, 0x00, 0x00, 0x00, 0x00, 0x20,
  0x04, 0x92, 0x24, 0x49, 0x92, 0x20, 0x04, 0x92, 0x24, 0x49, 0x92, 0x20,
  0xc4, 0xff, 0xff, 0xff, 0xff, 0x23, 0x44, 0x00, 0x00, 0x00, 0x00, 0x22,
  0x74, 0x00, 0x00, 0x00, 0x00, 0x2e, 0x44, 0x00, 0x00, 0x00, 0x00, 0x22,
  0x44, 0x00, 0x00, 0x00, 0x00, 0x22, 0x74, 0xff, 0xff, 0xff, 0xff, 0x2e,
  0x44, 0x00, 0x08, 0x00, 0x20, 0x22, 0x44, 0x00, 0x08, 0x00, 0x20, 0x22,
  0x74, 0x00, 0x08, 0x00, 0x20, 0x2e, 0x44, 0xff, 0xff, 0xff, 0xff, 0x22,
  0x44, 0x10, 0x08, 0x00, 0x21, 0x22, 0x74, 0x10, 0x08, 0x00, 0x21, 0x2e,
  0x44, 0x10, 0x08, 0x00, 0x21, 0x22, 0x44, 0xfc, 0x7e, 0xc0, 0xff, 0x22,
  0x74, 0x84, 0x42, 0x40, 0x80, 0x2e, 0x44, 0x08, 0x21, 0x40, 0x80, 0x22,
  0x44, 0x08, 0x21, 0x40, 0x80, 0x22, 0x74, 0x08, 0x20, 0x40, 0x80, 0x2e,
  0x44, 0x08, 0x20, 0x40, 0x80, 0x22, 0x44, 0x10, 0x10, 0x40, 0x80, 0x22,
  0x74, 0x10, 0x10, 0x40, 0x80, 0x2e, 0x44, 0xf0, 0x1f, 0x40, 0x80, 0x22,
  0x44, 0x00, 0x01, 0x40, 0x80, 0x22, 0x74, 0x00, 0x01, 0x40, 0x80, 0x2e,
  0x44, 0x00, 0x01, 0x40, 0x80, 0x22, 0x44, 0x00, 0x01, 0x40, 0x80, 0x22,
  0x74, 0x00, 0x01, 0xc0, 0xff, 0x2e, 0x44, 0x00, 0x01, 0x00, 0x08, 0x22,
  0x44, 0x00, 0x01, 0x00, 0x08, 0x22, 0x74, 0x00, 0x01, 0x00, 0x08, 0x2e,
  0x44, 0x00, 0x01, 0x00, 0x08, 0x22, 0x44, 0xff, 0xff, 0xff, 0xff, 0x22,
  0x74, 0x00, 0x00, 0x00, 0x00, 0x2e, 0x44, 0x00, 0x00, 0x00, 0x00, 0x22,
  0x44, 0x00, 0x00, 0x00, 0x00, 0x22, 0xc4, 0xff, 0xff, 0xff, 0xff, 0x23,
  0x04, 0x92, 0x24, 0x49, 0x92, 0x20, 0x04, 0x92, 0x24, 0x49, 0x92, 0x20,
  0x04, 0x00, 0x00, 0x00, 0x00, 0x20, 0xfc, 0xff, 0xff, 0xff, 0xff, 0x3f,
  0x00, 0x00, 0x00, 0x00, 0x00, 0x00, 0x00, 0x00, 0x00, 0x00, 0x00, 0x00,
  };
