#define storage_width 48
#define storage_height 48
static unsigned char storage_bits[] = {
   0x00, 0x00, 0x00, 0x00, 0x00, 0x00, 0x00, 0x00, 0x00, 0x00, 0x00, 0x00,
   0xfc, 0xff, 0xff, 0xff, 0xff, 0x3f, 0x04, 0x00, 0x00, 0x00, 0x00, 0x20,
   0x04, 0x00, 0x00, 0x00, 0x00, 0x20, 0x04, 0x00, 0x00, 0x00, 0x00, 0x20,
   0xe4, 0x01, 0x00, 0x00, 0x00, 0x20, 0x14, 0x12, 0x00, 0x00, 0x00, 0x20,
   0x14, 0x12, 0x00, 0x00, 0x00, 0x20, 0x34, 0xb8, 0xe7, 0x3c, 0x9f, 0x27,
   0xe4, 0xd1, 0x28, 0xa2, 0x99, 0x28, 0x04, 0x53, 0x28, 0xb8, 0xd0, 0x2f,
   0x14, 0x52, 0x28, 0xa6, 0x90, 0x20, 0x14, 0xd2, 0x28, 0xa2, 0x99, 0x28,
   0xe4, 0xb1, 0x27, 0x3e, 0x17, 0x27, 0x04, 0x00, 0x00, 0x00, 0x10, 0x20,
   0x04, 0x00, 0x00, 0x80, 0x19, 0x20, 0x04, 0x00, 0x00, 0x00, 0x0f, 0x20,
   0x04, 0x00, 0x00, 0x00, 0x00, 0x20, 0x04, 0x00, 0x00, 0x00, 0x00, 0x20,
   0x04, 0x00, 0x00, 0x00, 0x00, 0x20, 0x04, 0x00, 0x00, 0x00, 0x00, 0x20,
   0x04, 0xf8, 0xff, 0xff, 0xff, 0x3f, 0x04, 0x08, 0x08, 0x08, 0x08, 0x28,
   0x04, 0x08, 0x08, 0x08, 0x08, 0x28, 0x04, 0x08, 0x08, 0x08, 0x08, 0x28,
   0x7c, 0x7f, 0x7f, 0x7f, 0x7f, 0x3f, 0x44, 0x41, 0x41, 0x41, 0x41, 0x21,
   0x44, 0x41, 0x41, 0x41, 0x41, 0x21, 0x44, 0x41, 0x41, 0x41, 0x41, 0x21,
   0x44, 0x47, 0x47, 0x47, 0x47, 0x27, 0x44, 0x45, 0x45, 0x45, 0x45, 0x25,
   0x44, 0x47, 0x47, 0x47, 0x47, 0x27, 0x44, 0x41, 0x41, 0x41, 0x41, 0x21,
   0x44, 0x41, 0x41, 0x41, 0x41, 0x21, 0x44, 0x41, 0x41, 0x41, 0x41, 0x21,
   0x7c, 0x7f, 0x7f, 0x7f, 0x7f, 0x3f, 0x04, 0x08, 0x08, 0x08, 0x08, 0x28,
   0x04, 0x08, 0x08, 0x08, 0x08, 0x28, 0x04, 0x08, 0x08, 0x08, 0x08, 0x28,
   0xfc, 0xff, 0xff, 0xff, 0xff, 0x2f, 0x04, 0x00, 0x00, 0x00, 0x00, 0x20,
   0x04, 0x00, 0x00, 0x00, 0x00, 0x20, 0x04, 0x00, 0x00, 0x00, 0x00, 0x20,
   0x04, 0x00, 0x00, 0x00, 0x00, 0x20, 0xfc, 0xff, 0xff, 0xff, 0xff, 0x3f,
   0x00, 0x00, 0x00, 0x00, 0x00, 0x00, 0x00, 0x00, 0x00, 0x00, 0x00, 0x00,
   };
