#define valid.xbm_width 16
#define valid.xbm_height 16
static unsigned char valid.xbm_bits[] = {
   0x00, 0x00, 0xfe, 0x7f, 0x02, 0xc0, 0x02, 0xc0, 0x02, 0x60, 0x03, 0x70,
   0x02, 0x5c, 0x06, 0x4e, 0x1a, 0x47, 0xba, 0x43, 0xf2, 0x41, 0xe2, 0x40,
   0x42, 0x40, 0x02, 0x40, 0xfe, 0x7f, 0x00, 0x00};
